<svg width="211" height="67" viewBox="0 0 211 67" fill="none" xmlns="http://www.w3.org/2000/svg">
<path d="M112.088 40.584V57H111.608V41.76L104.816 57H104.336L97.52 41.76V57H97.04V40.584H97.52L104.576 56.376L111.608 40.584H112.088ZM121.805 56.736C123.261 56.736 124.485 56.368 125.477 55.632C126.469 54.896 127.069 53.888 127.277 52.608H127.757C127.533 53.968 126.893 55.072 125.837 55.92C124.797 56.752 123.453 57.168 121.805 57.168C120.605 57.168 119.533 56.904 118.589 56.376C117.645 55.848 116.901 55.08 116.357 54.072C115.829 53.064 115.565 51.88 115.565 50.52C115.565 49.16 115.829 47.976 116.357 46.968C116.901 45.96 117.645 45.192 118.589 44.664C119.533 44.136 120.605 43.872 121.805 43.872C123.069 43.872 124.149 44.144 125.045 44.688C125.941 45.216 126.613 45.904 127.061 46.752C127.525 47.6 127.757 48.496 127.757 49.44C127.757 50.016 127.749 50.448 127.733 50.736H116.045C116.061 52.064 116.333 53.176 116.861 54.072C117.405 54.968 118.109 55.64 118.973 56.088C119.837 56.52 120.781 56.736 121.805 56.736ZM121.805 44.304C120.781 44.304 119.837 44.528 118.973 44.976C118.109 45.408 117.405 46.072 116.861 46.968C116.333 47.864 116.061 48.976 116.045 50.304H127.325C127.405 48.976 127.189 47.864 126.677 46.968C126.181 46.072 125.493 45.408 124.613 44.976C123.749 44.528 122.813 44.304 121.805 44.304ZM130.635 50.52C130.635 49.16 130.899 47.984 131.427 46.992C131.955 45.984 132.699 45.216 133.659 44.688C134.619 44.144 135.715 43.872 136.947 43.872C138.435 43.872 139.691 44.264 140.715 45.048C141.755 45.816 142.451 46.8 142.803 48V39.24H143.259V57H142.803V53.016C142.451 54.232 141.755 55.232 140.715 56.016C139.691 56.784 138.435 57.168 136.947 57.168C135.715 57.168 134.619 56.904 133.659 56.376C132.699 55.832 131.955 55.064 131.427 54.072C130.899 53.064 130.635 51.88 130.635 50.52ZM142.803 50.52C142.803 49.288 142.547 48.208 142.035 47.28C141.539 46.336 140.843 45.608 139.947 45.096C139.067 44.568 138.067 44.304 136.947 44.304C135.763 44.304 134.731 44.552 133.851 45.048C132.987 45.544 132.315 46.264 131.835 47.208C131.355 48.136 131.115 49.24 131.115 50.52C131.115 51.8 131.355 52.912 131.835 53.856C132.315 54.784 132.987 55.496 133.851 55.992C134.731 56.488 135.763 56.736 136.947 56.736C138.067 56.736 139.067 56.48 139.947 55.968C140.843 55.44 141.539 54.712 142.035 53.784C142.547 52.84 142.803 51.752 142.803 50.52ZM147.577 40.728C147.401 40.728 147.249 40.672 147.121 40.56C147.009 40.432 146.953 40.272 146.953 40.08C146.953 39.888 147.009 39.736 147.121 39.624C147.249 39.496 147.401 39.432 147.577 39.432C147.753 39.432 147.897 39.496 148.009 39.624C148.137 39.736 148.201 39.888 148.201 40.08C148.201 40.272 148.137 40.432 148.009 40.56C147.897 40.672 147.753 40.728 147.577 40.728ZM147.817 44.04V57H147.337V44.04H147.817ZM151.307 50.52C151.307 49.16 151.571 47.984 152.099 46.992C152.627 45.984 153.371 45.216 154.331 44.688C155.291 44.144 156.387 43.872 157.619 43.872C159.107 43.872 160.363 44.264 161.387 45.048C162.427 45.816 163.123 46.8 163.475 48V44.04H163.931V57H163.475V53.04C163.123 54.24 162.427 55.232 161.387 56.016C160.363 56.784 159.107 57.168 157.619 57.168C156.387 57.168 155.291 56.904 154.331 56.376C153.371 55.832 152.627 55.064 152.099 54.072C151.571 53.064 151.307 51.88 151.307 50.52ZM163.475 50.52C163.475 49.288 163.219 48.208 162.707 47.28C162.211 46.336 161.515 45.608 160.619 45.096C159.739 44.568 158.739 44.304 157.619 44.304C156.435 44.304 155.403 44.552 154.523 45.048C153.659 45.544 152.987 46.264 152.507 47.208C152.027 48.136 151.787 49.24 151.787 50.52C151.787 51.8 152.027 52.912 152.507 53.856C152.987 54.784 153.659 55.496 154.523 55.992C155.403 56.488 156.435 56.736 157.619 56.736C158.739 56.736 159.739 56.48 160.619 55.968C161.515 55.44 162.211 54.712 162.707 53.784C163.219 52.84 163.475 51.752 163.475 50.52Z" fill="#222222"/>
<path d="M35.44 13.536V36H29.968V26.752H21.456V36H15.984V13.536H21.456V22.336H29.968V13.536H35.44ZM42.1423 16.288C41.1823 16.288 40.3929 16.0107 39.7743 15.456C39.1769 14.88 38.8783 14.176 38.8783 13.344C38.8783 12.4907 39.1769 11.7867 39.7743 11.232C40.3929 10.656 41.1823 10.368 42.1423 10.368C43.0809 10.368 43.8489 10.656 44.4463 11.232C45.0649 11.7867 45.3743 12.4907 45.3743 13.344C45.3743 14.176 45.0649 14.88 44.4463 15.456C43.8489 16.0107 43.0809 16.288 42.1423 16.288ZM44.8623 18.144V36H39.3903V18.144H44.8623ZM55.6118 17.888C56.8704 17.888 57.9691 18.144 58.9078 18.656C59.8678 19.168 60.6038 19.84 61.1158 20.672V18.144H66.5878V35.968C66.5878 37.6107 66.2571 39.0933 65.5958 40.416C64.9558 41.76 63.9638 42.8267 62.6198 43.616C61.2971 44.4053 59.6438 44.8 57.6598 44.8C55.0144 44.8 52.8704 44.1707 51.2278 42.912C49.5851 41.6747 48.6464 39.9893 48.4118 37.856H53.8198C53.9904 38.5387 54.3958 39.072 55.0358 39.456C55.6758 39.8613 56.4651 40.064 57.4038 40.064C58.5344 40.064 59.4304 39.7333 60.0918 39.072C60.7744 38.432 61.1158 37.3973 61.1158 35.968V33.44C60.5824 34.272 59.8464 34.9547 58.9078 35.488C57.9691 36 56.8704 36.256 55.6118 36.256C54.1398 36.256 52.8064 35.8827 51.6118 35.136C50.4171 34.368 49.4678 33.2907 48.7638 31.904C48.0811 30.496 47.7398 28.8747 47.7398 27.04C47.7398 25.2053 48.0811 23.5947 48.7638 22.208C49.4678 20.8213 50.4171 19.7547 51.6118 19.008C52.8064 18.2613 54.1398 17.888 55.6118 17.888ZM61.1158 27.072C61.1158 25.7067 60.7318 24.6293 59.9638 23.84C59.2171 23.0507 58.2998 22.656 57.2118 22.656C56.1238 22.656 55.1958 23.0507 54.4278 23.84C53.6811 24.608 53.3078 25.6747 53.3078 27.04C53.3078 28.4053 53.6811 29.4933 54.4278 30.304C55.1958 31.0933 56.1238 31.488 57.2118 31.488C58.2998 31.488 59.2171 31.0933 59.9638 30.304C60.7318 29.5147 61.1158 28.4373 61.1158 27.072ZM81.5225 17.952C83.5705 17.952 85.2132 18.6347 86.4505 20C87.6878 21.344 88.3065 23.2 88.3065 25.568V36H82.8665V26.304C82.8665 25.1093 82.5572 24.1813 81.9385 23.52C81.3198 22.8587 80.4878 22.528 79.4425 22.528C78.3972 22.528 77.5652 22.8587 76.9465 23.52C76.3278 24.1813 76.0185 25.1093 76.0185 26.304V36H70.5465V12.32H76.0185V20.544C76.5732 19.7547 77.3305 19.1253 78.2905 18.656C79.2505 18.1867 80.3278 17.952 81.5225 17.952ZM116.01 20.768C116.01 22.0693 115.712 23.264 115.114 24.352C114.517 25.4187 113.6 26.2827 112.362 26.944C111.125 27.6053 109.589 27.936 107.754 27.936H104.362V36H98.8903V13.536H107.754C109.546 13.536 111.061 13.8453 112.298 14.464C113.536 15.0827 114.464 15.936 115.082 17.024C115.701 18.112 116.01 19.36 116.01 20.768ZM107.338 23.584C108.384 23.584 109.162 23.3387 109.674 22.848C110.186 22.3573 110.442 21.664 110.442 20.768C110.442 19.872 110.186 19.1787 109.674 18.688C109.162 18.1973 108.384 17.952 107.338 17.952H104.362V23.584H107.338ZM124.331 12.32V36H118.859V12.32H124.331ZM127.209 27.04C127.209 25.2053 127.55 23.5947 128.233 22.208C128.937 20.8213 129.886 19.7547 131.081 19.008C132.275 18.2613 133.609 17.888 135.081 17.888C136.339 17.888 137.438 18.144 138.377 18.656C139.337 19.168 140.073 19.84 140.585 20.672V18.144H146.057V36H140.585V33.472C140.051 34.304 139.305 34.976 138.345 35.488C137.406 36 136.307 36.256 135.049 36.256C133.598 36.256 132.275 35.8827 131.081 35.136C129.886 34.368 128.937 33.2907 128.233 31.904C127.55 30.496 127.209 28.8747 127.209 27.04ZM140.585 27.072C140.585 25.7067 140.201 24.6293 139.433 23.84C138.686 23.0507 137.769 22.656 136.681 22.656C135.593 22.656 134.665 23.0507 133.897 23.84C133.15 24.608 132.777 25.6747 132.777 27.04C132.777 28.4053 133.15 29.4933 133.897 30.304C134.665 31.0933 135.593 31.488 136.681 31.488C137.769 31.488 138.686 31.0933 139.433 30.304C140.201 29.5147 140.585 28.4373 140.585 27.072ZM152.767 16.288C151.807 16.288 151.018 16.0107 150.399 15.456C149.802 14.88 149.503 14.176 149.503 13.344C149.503 12.4907 149.802 11.7867 150.399 11.232C151.018 10.656 151.807 10.368 152.767 10.368C153.706 10.368 154.474 10.656 155.071 11.232C155.69 11.7867 155.999 12.4907 155.999 13.344C155.999 14.176 155.69 14.88 155.071 15.456C154.474 16.0107 153.706 16.288 152.767 16.288ZM155.487 18.144V36H150.015V18.144H155.487ZM170.333 17.952C172.423 17.952 174.087 18.6347 175.325 20C176.583 21.344 177.213 23.2 177.213 25.568V36H171.773V26.304C171.773 25.1093 171.463 24.1813 170.845 23.52C170.226 22.8587 169.394 22.528 168.349 22.528C167.303 22.528 166.471 22.8587 165.853 23.52C165.234 24.1813 164.925 25.1093 164.925 26.304V36H159.453V18.144H164.925V20.512C165.479 19.7227 166.226 19.104 167.165 18.656C168.103 18.1867 169.159 17.952 170.333 17.952ZM188.279 36.256C186.722 36.256 185.335 35.9893 184.119 35.456C182.903 34.9227 181.943 34.1973 181.239 33.28C180.535 32.3413 180.141 31.296 180.055 30.144H185.463C185.527 30.7627 185.815 31.264 186.327 31.648C186.839 32.032 187.469 32.224 188.215 32.224C188.898 32.224 189.421 32.096 189.783 31.84C190.167 31.5627 190.359 31.2107 190.359 30.784C190.359 30.272 190.093 29.8987 189.559 29.664C189.026 29.408 188.162 29.1307 186.967 28.832C185.687 28.5333 184.621 28.224 183.767 27.904C182.914 27.5627 182.178 27.04 181.559 26.336C180.941 25.6107 180.631 24.64 180.631 23.424C180.631 22.4 180.909 21.472 181.463 20.64C182.039 19.7867 182.871 19.1147 183.959 18.624C185.069 18.1333 186.381 17.888 187.895 17.888C190.135 17.888 191.895 18.4427 193.175 19.552C194.477 20.6613 195.223 22.1333 195.415 23.968H190.359C190.274 23.3493 189.997 22.8587 189.527 22.496C189.079 22.1333 188.482 21.952 187.735 21.952C187.095 21.952 186.605 22.08 186.263 22.336C185.922 22.5707 185.751 22.9013 185.751 23.328C185.751 23.84 186.018 24.224 186.551 24.48C187.106 24.736 187.959 24.992 189.111 25.248C190.434 25.5893 191.511 25.9307 192.343 26.272C193.175 26.592 193.901 27.1253 194.519 27.872C195.159 28.5973 195.49 29.5787 195.511 30.816C195.511 31.8613 195.213 32.8 194.615 33.632C194.039 34.4427 193.197 35.0827 192.087 35.552C190.999 36.0213 189.73 36.256 188.279 36.256Z" fill="#222222"/>
<line y1="53" x2="56" y2="53" stroke="#186CEB" stroke-width="6"/>
<line x1="154" y1="3" x2="210" y2="3" stroke="#186CEB" stroke-width="6"/>
<line x1="208" y1="-3.57746e-08" x2="208" y2="56" stroke="#186CEB" stroke-width="6"/>
<path d="M3 -3.57746e-08L3 56" stroke="#186CEB" stroke-width="6"/>
<circle cx="168.5" cy="55.5" r="1.5" fill="#186CEB"/>
</svg>
